<svg width="185" height="51" viewBox="0 0 185 51" fill="none" xmlns="http://www.w3.org/2000/svg">
<path d="M23.1641 30.48C23.1641 31.8933 22.8307 33.2267 22.1641 34.48C21.4974 35.7333 20.4307 36.76 18.9641 37.56C17.4974 38.3333 15.6174 38.72 13.3241 38.72H8.28406V50H3.72406V22.2H13.3241C15.4574 22.2 17.2574 22.5733 18.7241 23.32C20.2174 24.04 21.3241 25.0267 22.0441 26.28C22.7907 27.5333 23.1641 28.9333 23.1641 30.48ZM13.3241 35C15.0574 35 16.3507 34.6133 17.2041 33.84C18.0574 33.04 18.4841 31.92 18.4841 30.48C18.4841 27.44 16.7641 25.92 13.3241 25.92H8.28406V35H13.3241ZM37.0731 50.36C34.9931 50.36 33.1131 49.8933 31.4331 48.96C29.7531 48 28.4331 46.6667 27.4731 44.96C26.5131 43.2267 26.0331 41.2267 26.0331 38.96C26.0331 36.72 26.5265 34.7333 27.5131 33C28.4998 31.2667 29.8465 29.9333 31.5531 29C33.2598 28.0667 35.1665 27.6 37.2731 27.6C39.3798 27.6 41.2865 28.0667 42.9931 29C44.6998 29.9333 46.0465 31.2667 47.0331 33C48.0198 34.7333 48.5131 36.72 48.5131 38.96C48.5131 41.2 48.0065 43.1867 46.9931 44.92C45.9798 46.6533 44.5931 48 42.8331 48.96C41.0998 49.8933 39.1798 50.36 37.0731 50.36ZM37.0731 46.4C38.2465 46.4 39.3398 46.12 40.3531 45.56C41.3931 45 42.2331 44.16 42.8731 43.04C43.5131 41.92 43.8331 40.56 43.8331 38.96C43.8331 37.36 43.5265 36.0133 42.9131 34.92C42.2998 33.8 41.4865 32.96 40.4731 32.4C39.4598 31.84 38.3665 31.56 37.1931 31.56C36.0198 31.56 34.9265 31.84 33.9131 32.4C32.9265 32.96 32.1398 33.8 31.5531 34.92C30.9665 36.0133 30.6731 37.36 30.6731 38.96C30.6731 41.3333 31.2731 43.1733 32.4731 44.48C33.6998 45.76 35.2331 46.4 37.0731 46.4ZM57.5809 31.16C58.2476 30.04 59.1276 29.1733 60.2209 28.56C61.3409 27.92 62.6609 27.6 64.1809 27.6V32.32H63.0209C61.2343 32.32 59.8743 32.7733 58.9409 33.68C58.0343 34.5867 57.5809 36.16 57.5809 38.4V50H53.0209V27.96H57.5809V31.16ZM66.8525 38.96C66.8525 36.6933 67.3058 34.7067 68.2125 33C69.1458 31.2667 70.4258 29.9333 72.0525 29C73.6792 28.0667 75.5458 27.6 77.6525 27.6C80.3192 27.6 82.5192 28.24 84.2525 29.52C86.0125 30.7733 87.1992 32.5733 87.8125 34.92H82.8925C82.4925 33.8267 81.8525 32.9733 80.9725 32.36C80.0925 31.7467 78.9858 31.44 77.6525 31.44C75.7858 31.44 74.2925 32.1067 73.1725 33.44C72.0792 34.7467 71.5325 36.5867 71.5325 38.96C71.5325 41.3333 72.0792 43.1867 73.1725 44.52C74.2925 45.8533 75.7858 46.52 77.6525 46.52C80.2925 46.52 82.0392 45.36 82.8925 43.04H87.8125C87.1725 45.28 85.9725 47.0667 84.2125 48.4C82.4525 49.7067 80.2658 50.36 77.6525 50.36C75.5458 50.36 73.6792 49.8933 72.0525 48.96C70.4258 48 69.1458 46.6667 68.2125 44.96C67.3058 43.2267 66.8525 41.2267 66.8525 38.96ZM104.277 44.2V50H100.797C98.3169 50 96.3835 49.4 94.9969 48.2C93.6102 46.9733 92.9169 44.9867 92.9169 42.24V33.36H90.1969V27.68H92.9169V22.24H99.7569V27.68H104.237V33.36H99.7569V42.32C99.7569 42.9867 99.9169 43.4667 100.237 43.76C100.557 44.0533 101.09 44.2 101.837 44.2H104.277ZM111.527 25.36C110.327 25.36 109.34 25.0133 108.567 24.32C107.82 23.6 107.447 22.72 107.447 21.68C107.447 20.6133 107.82 19.7333 108.567 19.04C109.34 18.32 110.327 17.96 111.527 17.96C112.7 17.96 113.66 18.32 114.407 19.04C115.18 19.7333 115.567 20.6133 115.567 21.68C115.567 22.72 115.18 23.6 114.407 24.32C113.66 25.0133 112.7 25.36 111.527 25.36ZM114.927 27.68V50H108.087V27.68H114.927ZM148.364 27.44C151.137 27.44 153.337 28.28 154.964 29.96C156.617 31.64 157.444 33.9733 157.444 36.96V50H150.644V37.88C150.644 36.44 150.257 35.3333 149.484 34.56C148.737 33.76 147.697 33.36 146.364 33.36C145.03 33.36 143.977 33.76 143.204 34.56C142.457 35.3333 142.084 36.44 142.084 37.88V50H135.284V37.88C135.284 36.44 134.897 35.3333 134.124 34.56C133.377 33.76 132.337 33.36 131.004 33.36C129.67 33.36 128.617 33.76 127.844 34.56C127.097 35.3333 126.724 36.44 126.724 37.88V50H119.884V27.68H126.724V30.48C127.417 29.5467 128.324 28.8133 129.444 28.28C130.564 27.72 131.83 27.44 133.244 27.44C134.924 27.44 136.417 27.8 137.724 28.52C139.057 29.24 140.097 30.2667 140.844 31.6C141.617 30.3733 142.67 29.3733 144.004 28.6C145.337 27.8267 146.79 27.44 148.364 27.44ZM183.267 38.48C183.267 39.12 183.227 39.7867 183.147 40.48H167.667C167.774 41.8667 168.214 42.9333 168.987 43.68C169.787 44.4 170.761 44.76 171.907 44.76C173.614 44.76 174.801 44.04 175.467 42.6H182.747C182.374 44.0667 181.694 45.3867 180.707 46.56C179.747 47.7333 178.534 48.6533 177.067 49.32C175.601 49.9867 173.961 50.32 172.147 50.32C169.961 50.32 168.014 49.8533 166.307 48.92C164.601 47.9867 163.267 46.6533 162.307 44.92C161.347 43.1867 160.867 41.16 160.867 38.84C160.867 36.52 161.334 34.4933 162.267 32.76C163.227 31.0267 164.561 29.6933 166.267 28.76C167.974 27.8267 169.934 27.36 172.147 27.36C174.307 27.36 176.227 27.8133 177.907 28.72C179.587 29.6267 180.894 30.92 181.827 32.6C182.787 34.28 183.267 36.24 183.267 38.48ZM176.267 36.68C176.267 35.5067 175.867 34.5733 175.067 33.88C174.267 33.1867 173.267 32.84 172.067 32.84C170.921 32.84 169.947 33.1733 169.147 33.84C168.374 34.5067 167.894 35.4533 167.707 36.68H176.267Z" fill="#FF0000"/>
<circle cx="50.56" cy="9" r="9" fill="#FF0000"/>
<circle cx="92.56" cy="9" r="9" fill="#FF0000"/>
<circle cx="134.56" cy="9" r="9" fill="#FF0000"/>
</svg>
