<svg width="112" height="30" viewBox="0 0 112 30" fill="none" xmlns="http://www.w3.org/2000/svg">
<path d="M4.65562 5H0.0556226V0.999998H13.6556V5H9.05562V29H4.65562V5ZM15.7859 0.999998H22.3059C24.5726 0.999998 26.2259 1.53333 27.2659 2.6C28.3059 3.64 28.8259 5.25333 28.8259 7.44V9.16C28.8259 12.0667 27.8659 13.9067 25.9459 14.68V14.76C27.0126 15.08 27.7593 15.7333 28.1859 16.72C28.6393 17.7067 28.8659 19.0267 28.8659 20.68V25.6C28.8659 26.4 28.8926 27.0533 28.9459 27.56C28.9993 28.04 29.1326 28.52 29.3459 29H24.8659C24.7059 28.5467 24.5993 28.12 24.5459 27.72C24.4926 27.32 24.4659 26.6 24.4659 25.56V20.44C24.4659 19.16 24.2526 18.2667 23.8259 17.76C23.4259 17.2533 22.7193 17 21.7059 17H20.1859V29H15.7859V0.999998ZM21.7859 13C22.6659 13 23.3193 12.7733 23.7459 12.32C24.1993 11.8667 24.4259 11.1067 24.4259 10.04V7.88C24.4259 6.86667 24.2393 6.13333 23.8659 5.68C23.5193 5.22667 22.9593 5 22.1859 5H20.1859V13H21.7859ZM31.9187 0.999998H43.9187V5H36.3187V12.4H42.3587V16.4H36.3187V25H43.9187V29H31.9187V0.999998ZM45.81 13H54.61V17H45.81V13ZM57.2312 0.999998H61.6312V12.8L67.2312 0.999998H71.6312L66.3912 11.28L71.7112 29H67.1112L63.3912 16.52L61.6312 20.08V29H57.2312V0.999998ZM73.7937 0.999998H78.1937V29H73.7937V0.999998ZM81.4891 0.999998H87.0091L91.2891 17.76H91.3691V0.999998H95.2891V29H90.7691L85.4891 8.56H85.4091V29H81.4891V0.999998ZM104.799 29.4C102.666 29.4 101.039 28.8 99.9194 27.6C98.7994 26.3733 98.2394 24.6267 98.2394 22.36V7.64C98.2394 5.37333 98.7994 3.64 99.9194 2.44C101.039 1.21333 102.666 0.599998 104.799 0.599998C106.933 0.599998 108.559 1.21333 109.679 2.44C110.799 3.64 111.359 5.37333 111.359 7.64V10.04H107.199V7.36C107.199 5.52 106.439 4.6 104.919 4.6C103.399 4.6 102.639 5.52 102.639 7.36V22.68C102.639 24.4933 103.399 25.4 104.919 25.4C106.439 25.4 107.199 24.4933 107.199 22.68V17.2H104.999V13.2H111.359V22.36C111.359 24.6267 110.799 26.3733 109.679 27.6C108.559 28.8 106.933 29.4 104.799 29.4Z" fill="#FF0000"/>
</svg>
