<svg width="58" height="58" viewBox="0 0 58 58" fill="none" xmlns="http://www.w3.org/2000/svg">
<path d="M52.9361 22.0804C53.7164 24.5589 54.1391 27.1956 54.1391 29.931C54.1391 44.3289 42.4674 56.0006 28.0695 56.0006C13.6717 56.0006 2 44.3289 2 29.931C2 15.5332 13.6717 3.86151 28.0695 3.86151C30.6243 3.86151 33.0916 4.23021 35.423 4.9136" stroke="#333333" stroke-width="3" stroke-linecap="round" stroke-linejoin="round"/>
<path d="M39.0576 27.9005C39.1787 28.5597 39.242 29.2375 39.242 29.9321C39.242 36.1012 34.2403 41.1047 28.0693 41.1047C21.9002 41.1047 16.8967 36.1012 16.8967 29.9321C16.8967 23.761 21.9002 18.7594 28.0693 18.7594C28.6913 18.7594 29.3002 18.8097 29.8942 18.9065" stroke="#333333" stroke-width="3" stroke-linecap="round" stroke-linejoin="round"/>
<path d="M28.0695 29.9316L54.139 3.86212" stroke="white" stroke-width="3" stroke-linecap="round" stroke-linejoin="round"/>
<path fill-rule="evenodd" clip-rule="evenodd" d="M48.5527 9.44844V2L41.1043 9.44844V16.8969H48.5527L56.0011 9.44844H48.5527Z" stroke="white" stroke-width="3" stroke-linecap="round" stroke-linejoin="round"/>
</svg>
