<svg width="56" height="56" viewBox="0 0 56 56" fill="none" xmlns="http://www.w3.org/2000/svg">
<path fill-rule="evenodd" clip-rule="evenodd" d="M39.1429 9.42857C39.1429 13.531 42.469 16.8571 46.5714 16.8571C50.6739 16.8571 54 13.531 54 9.42857C54 5.32614 50.6739 2 46.5714 2C42.469 2 39.1429 5.32614 39.1429 9.42857Z" stroke="#333333" stroke-width="3" stroke-linecap="round" stroke-linejoin="round"/>
<path fill-rule="evenodd" clip-rule="evenodd" d="M39.1429 46.5715C39.1429 50.6739 42.469 54 46.5714 54C50.6739 54 54 50.6739 54 46.5715C54 42.469 50.6739 39.1429 46.5714 39.1429C42.469 39.1429 39.1429 42.469 39.1429 46.5715Z" stroke="#333333" stroke-width="3" stroke-linecap="round" stroke-linejoin="round"/>
<path fill-rule="evenodd" clip-rule="evenodd" d="M2 28C2 33.642 6.57414 38.2143 12.2143 38.2143C17.8544 38.2143 22.4286 33.642 22.4286 28C22.4286 22.358 17.8544 17.7857 12.2143 17.7857C6.57414 17.7857 2 22.358 2 28Z" stroke="#333333" stroke-width="3" stroke-linecap="round" stroke-linejoin="round"/>
<path d="M7.57144 28C7.57144 25.4408 9.65516 23.3571 12.2143 23.3571" stroke="white" stroke-width="3" stroke-linecap="round" stroke-linejoin="round"/>
<path d="M21.5 32.6429L40.0789 42.9649" stroke="#333333" stroke-width="3" stroke-linecap="round" stroke-linejoin="round"/>
<path d="M40.0787 13.0359L21.4998 23.3579" stroke="#333333" stroke-width="3" stroke-linecap="round" stroke-linejoin="round"/>
</svg>
