<svg width="31" height="29" viewBox="0 0 31 29" fill="none" xmlns="http://www.w3.org/2000/svg">
<path d="M15.465 27.9533C7.74764 27.9533 1.49152 21.8166 1.49152 14.2467C1.49152 6.67678 7.74764 0.540161 15.465 0.540161C23.1823 0.540161 29.4385 6.67678 29.4385 14.2467C29.4385 21.8166 23.1823 27.9533 15.465 27.9533Z" stroke="white" stroke-width="1.5" stroke-miterlimit="10"/>
<path d="M8.01933 18.8348C9.37042 19.6847 10.9785 20.1817 12.7041 20.1817C18.3728 20.1817 21.5816 15.4856 21.3907 11.2648C21.9855 10.8399 22.5068 10.3141 22.918 9.71627C22.3673 9.95396 21.7799 10.1124 21.1631 10.1844C21.7946 9.81711 22.2792 9.2265 22.5068 8.52785C21.9194 8.87357 21.2659 9.11846 20.5683 9.25531C20.0102 8.6719 19.2172 8.31177 18.3361 8.31177C16.3608 8.31177 14.9143 10.1196 15.3622 11.9923C12.8216 11.8699 10.5746 10.6742 9.06202 8.85917C8.26165 10.2061 8.64348 11.9707 10.0092 12.8638C9.50993 12.8494 9.03999 12.7126 8.62145 12.4893C8.59208 13.8794 9.6054 15.1758 11.074 15.464C10.6407 15.5792 10.1708 15.608 9.69351 15.5144C10.0827 16.7028 11.2135 17.5743 12.5499 17.5959C11.2649 18.5827 9.64945 19.022 8.02668 18.8348H8.01933Z" fill="white"/>
</svg>
