<svg width="30" height="30" viewBox="0 0 30 30" fill="none" xmlns="http://www.w3.org/2000/svg">
<path d="M15.2193 28.5811C7.5019 28.5811 1.24577 22.4445 1.24577 14.8745C1.24577 7.30459 7.5019 1.16077 15.2193 1.16077C22.9366 1.16077 29.1927 7.29738 29.1927 14.8673C29.1927 22.4373 22.9366 28.5739 15.2193 28.5739V28.5811Z" stroke="white" stroke-width="1.5" stroke-miterlimit="10"/>
<path d="M25.9398 9.55899C25.6828 8.60825 24.9265 7.85918 23.9646 7.60708C22.217 7.14612 15.2266 7.14612 15.2266 7.14612C15.2266 7.14612 8.22884 7.14612 6.48858 7.60708C5.52667 7.85918 4.77035 8.60825 4.51335 9.55899C4.04341 11.2804 4.04341 14.8745 4.04341 14.8745C4.04341 14.8745 4.04341 18.4686 4.51335 20.19C4.77035 21.1408 5.52667 21.8898 6.48858 22.1419C8.23619 22.6029 15.2266 22.6029 15.2266 22.6029C15.2266 22.6029 22.2243 22.6029 23.9646 22.1419C24.9265 21.8898 25.6828 21.1408 25.9398 20.19C26.4098 18.4686 26.4098 14.8745 26.4098 14.8745C26.4098 14.8745 26.4098 11.2804 25.9398 9.55899Z" fill="white"/>
<path d="M12.9356 18.13V11.6117L18.7805 14.8745L12.9356 18.13Z" fill="black"/>
</svg>
